<?xml version="1.0" encoding="utf-8"?>
<!-- Generator: Adobe Illustrator 16.0.0, SVG Export Plug-In . SVG Version: 6.00 Build 0)  -->
<!DOCTYPE svg PUBLIC "-//W3C//DTD SVG 1.1//EN" "http://www.w3.org/Graphics/SVG/1.1/DTD/svg11.dtd">
<svg version="1.1" id="Layer_1" xmlns="http://www.w3.org/2000/svg" xmlns:xlink="http://www.w3.org/1999/xlink" x="0px" y="0px"
	 width="627.648px" height="627.648px" viewBox="0 0 627.648 627.648" enable-background="new 0 0 627.648 627.648"
	 xml:space="preserve">
<rect fill-rule="evenodd" clip-rule="evenodd" fill="#FFFFFF" width="627.648" height="627.648"/>
<g>
	<path fill-rule="evenodd" clip-rule="evenodd" fill="#105FAA" d="M48.561,366.988c1.37-3.088,2.5-5.655,3.646-8.217
		c5.022-11.217,10.084-22.415,15.011-33.673c0.448-1.024,0.421-2.596-0.035-3.625c-7.327-16.548-14.762-33.049-22.163-49.565
		c-0.229-0.511-0.364-1.064-0.647-1.911c31.891,0,63.573,0,95.451,0c0-27.054,0-53.832,0-80.936c-9.228,0-18.425,0-27.724,0
		c0-34.963,0-69.6,0-104.422c61.097,0,122.188,0,183.372,0c0,34.814,0,69.514,0,104.319c-3.405,0-6.637-0.011-9.868,0.002
		c-5.496,0.022-10.993,0.015-16.486,0.159c-0.571,0.015-1.328,0.865-1.615,1.501c-0.282,0.626-0.083,1.473-0.083,2.222
		c0.01,24.664,0.019,49.328,0.044,73.991c0.001,0.978,0.162,1.955,0.254,2.993c32.837,0,65.471,0,98.336,0
		c0-26.933,0-53.719,0-80.813c-9.375,0-18.567,0-27.867,0c0-34.859,0-69.412,0-104.238c61.251,0,122.501,0,183.946,0
		c0,34.563,0,69.174,0,104.252c-2.272,0-4.571-0.002-6.87,0c-6.329,0.007-12.658,0.059-18.986-0.009
		c-1.416-0.015-2.024,0.446-1.987,1.823c0.009,0.333-0.009,0.667-0.009,1c0.006,24.998,0.051,49.996-0.04,74.993
		c-0.009,2.583,0.752,3.188,3.252,3.18c27.664-0.086,55.328-0.051,82.992-0.049c0.564,0,1.13,0,1.993,0
		c-2.731,6.122-5.353,12.02-7.993,17.908c-4.996,11.138-10.045,22.252-14.94,33.435c-0.479,1.094-0.46,2.767,0.022,3.866
		c5.839,13.311,11.81,26.563,17.741,39.834c0.23,0.518,0.407,1.06,0.688,1.798c-2.075,0-3.957,0-5.838-0.001
		c-24.581-0.002-49.162-0.005-73.744-0.007c-4.102-0.001-4.123,0.001-4.124,4.065c-0.004,34.247-0.016,68.494,0.043,102.74
		c0.004,1.97-0.479,3.359-1.913,4.787c-23.844,23.735-47.613,47.544-71.459,71.277c-0.738,0.734-2.08,1.064-3.184,1.184
		c-1.728,0.187-3.492,0.022-5.241,0.021c-64.995-0.006-129.989-0.019-194.983,0.023c-2.069,0.001-3.6-0.526-5.06-2.03
		c-7.414-7.641-14.868-15.244-22.403-22.766c-16.081-16.052-32.201-32.063-48.368-48.026c-1.317-1.301-1.752-2.581-1.75-4.354
		c0.046-34.33,0.042-68.661,0.047-102.991c0-1.155,0-2.311,0-3.744C109.559,366.988,79.348,366.988,48.561,366.988z
		 M468.626,367.109c-0.085,1.031-0.235,2.009-0.235,2.986c-0.003,30.662,0.021,61.323-0.033,91.985
		c-0.002,1.008-0.505,2.272-1.211,2.982c-19.386,19.489-38.837,38.913-58.239,58.385c-1.194,1.198-2.368,1.702-4.1,1.7
		c-55.324-0.053-110.648-0.044-165.973-0.042c-3.749,0-7.922,1.06-11.128-0.254c-3.291-1.348-5.682-4.958-8.386-7.659
		c-17.204-17.179-34.375-34.392-51.597-51.553c-1.277-1.272-1.773-2.55-1.764-4.369c0.077-16.33,0.047-32.661,0.046-48.992
		c-0.001-14.247-0.039-28.495,0.028-42.742c0.009-2.018-0.51-2.823-2.655-2.744c-3.91,0.145-7.83,0.023-11.746,0.017
		c-2.377-0.004-4.753,0-7.334,0c0,2.244,0,3.895,0,5.545c0,32.578,0.05,65.156-0.079,97.734c-0.012,3.141,1.031,5.221,3.166,7.343
		c22.211,22.083,44.372,44.215,66.445,66.434c2.114,2.128,4.183,3.001,7.171,2.995c46.242-0.087,92.485-0.059,138.727-0.062
		c18.581-0.002,37.161,0.02,55.74-0.095c1.297-0.008,2.902-0.736,3.834-1.663c22.903-22.795,45.719-45.679,68.613-68.481
		c1.549-1.543,2.153-3.061,2.148-5.223c-0.062-33.078-0.042-66.156-0.043-99.234c0-1.083-0.084-2.171-0.006-3.248
		c0.11-1.522-0.532-2.037-2.027-2.025c-5.832,0.046-11.664-0.004-17.496,0.005C469.928,366.835,469.365,366.996,468.626,367.109z
		 M138.063,110.653c44.062,0,88.014,0,131.997,0c0,17.747,0,35.341,0,53.089c-8.559,0-16.887,0.05-25.213-0.037
		c-1.94-0.021-2.606,0.531-2.604,2.543c0.051,33.747,0.05,67.494-0.006,101.241c-0.003,2.038,0.716,2.543,2.622,2.507
		c5.414-0.103,10.836-0.159,16.246,0.023c2.373,0.08,2.91-0.702,2.904-2.956c-0.071-26.081-0.043-52.162-0.042-78.243
		c0-1.061,0-2.122,0-3.498c9.446,0,18.635,0,27.814,0c0-32.255,0-64.19,0-96.214c-58.524,0-116.821,0-175.502,0
		c0,1.281,0,2.334,0,3.388c0.002,29.497-0.008,58.995,0.021,88.492c0.005,4.959-0.845,4.414,4.559,4.436
		c7.726,0.033,15.452,0.008,23.439,0.008c0,1.177,0,2.154,0,3.132c0.003,26.164,0.032,52.329-0.037,78.493
		c-0.006,2.257,0.544,3.042,2.913,2.962c5.327-0.18,10.667-0.171,15.995-0.002c2.333,0.074,2.887-0.658,2.882-2.94
		c-0.073-33.33-0.047-66.661-0.044-99.991c0-0.973,0-1.946,0-3.292c-9.524,0-18.716,0-27.941,0
		C138.063,145.874,138.063,128.329,138.063,110.653z M370.313,185.42c0.042,0.704,0.079,1.035,0.079,1.366
		c-0.005,25.999-0.013,51.998-0.021,77.997c0,0.917,0.043,1.835-0.002,2.75c-0.086,1.74,0.514,2.619,2.446,2.481
		c2.073-0.148,4.165-0.048,6.248-0.049c4.224-0.003,8.448-0.001,12.796-0.001c0.08-0.849,0.18-1.409,0.18-1.968
		c0.013-33.916,0-67.831,0.064-101.746c0.004-2.041-0.737-2.539-2.601-2.522c-7.583,0.068-15.166,0.034-22.749,0.025
		c-0.876-0.001-1.752-0.08-2.594-0.12c0-17.841,0-35.387,0-53.05c0.639-0.049,1.121-0.118,1.603-0.118
		c42.832-0.001,85.663,0.012,128.494-0.031c1.799-0.001,2.223,0.564,2.215,2.294c-0.068,16.249-0.047,32.499-0.061,48.748
		c0,0.719-0.081,1.438-0.141,2.432c-9.271,0-18.387,0-27.88,0c0,1.846,0,3.409,0,4.971c0,31.416,0,62.831,0.001,94.247
		c0,1.583,0.057,3.167,0.013,4.749c-0.045,1.605,0.646,2.147,2.258,2.123c5.415-0.082,10.837-0.17,16.246,0.029
		c2.525,0.092,3.195-0.598,3.185-3.161c-0.105-26.082-0.069-52.164-0.073-78.247c0-0.979,0-1.958,0-3.228c9.42,0,18.617,0,27.863,0
		c0-32.252,0-64.209,0-96.252c-2.073-0.091-3.975-0.25-5.877-0.248c-55.578,0.04-111.157,0.115-166.735,0.082
		c-2.398-0.001-2.937,0.668-2.932,2.897c0.058,29.666,0.035,59.331,0.054,88.997c0.001,1.461,0.194,2.922,0.311,4.554
		C352.021,185.42,361.079,185.42,370.313,185.42z M267.725,366.81c-0.115,2.143-0.295,3.954-0.297,5.766
		c-0.021,18.077,0.029,36.154-0.058,54.23c-0.014,2.78,0.761,4.855,2.827,6.776c4.021,3.74,7.774,7.767,11.729,11.58
		c0.695,0.671,1.833,1.25,2.768,1.253c21.659,0.077,43.317,0.086,64.976,0.023c0.923-0.003,2.062-0.582,2.729-1.259
		c4.15-4.208,8.254-8.467,12.227-12.843c0.851-0.937,1.551-2.42,1.555-3.654c0.066-19.823-0.015-39.647,0.013-59.471
		c0.003-2.054-0.803-2.422-2.676-2.419c-29.738,0.049-59.478,0.024-89.217,0.017C272.227,366.809,270.151,366.81,267.725,366.81z
		 M370.629,367.057c-0.091,2.069-0.244,3.969-0.246,5.867c-0.016,19.493,0.022,38.986-0.072,58.479
		c-0.006,1.318-0.65,2.919-1.537,3.9c-4.187,4.625-8.605,9.039-12.842,13.621c-1.303,1.409-2.683,1.901-4.585,1.897
		c-23.074-0.044-46.149,0.01-69.224-0.049c-1.003-0.002-2.245-0.604-2.967-1.332c-4.514-4.55-8.873-9.255-13.374-13.818
		c-1.32-1.339-1.872-2.705-1.865-4.61c0.071-19.993,0.048-39.986,0.052-59.979c0-1.237,0-2.475,0-3.729
		c-0.604-0.174-0.993-0.382-1.383-0.384c-6.162-0.033-12.324-0.027-18.485-0.059c-2.103-0.011-1.815,1.46-1.815,2.782
		c-0.002,23.658-0.026,47.316,0.053,70.975c0.004,1.16,0.627,2.587,1.438,3.435c8.461,8.836,17.048,17.551,25.521,26.375
		c1.367,1.424,2.724,2.05,4.731,2.046c28.822-0.061,57.646-0.021,86.469-0.099c1.151-0.003,2.573-0.667,3.409-1.49
		c8.718-8.592,17.3-17.321,26.029-25.901c1.565-1.539,2.171-3.067,2.165-5.227c-0.062-22.825-0.034-45.65-0.031-68.476
		c0-1.322,0-2.644,0-4.224C384.855,367.057,377.905,367.057,370.629,367.057z M164,300.842c3.565,0.179,6.816,0.636,10.023,0.427
		c4.183-0.272,6.865,1.256,8.098,5.241c0.549,1.773,1.559,2.403,3.441,1.586c0-2.402-0.058-4.807,0.019-7.207
		c0.061-1.902-0.722-2.738-2.645-2.726c-3.664,0.023-7.329-0.048-10.993-0.097c-7.237-0.097-14.475-0.192-21.711-0.322
		c-1.145-0.021-2.179,0.155-1.892,1.526c0.129,0.617,0.96,1.294,1.623,1.544c0.903,0.341,2.073,0.063,2.899,0.492
		c0.763,0.396,1.724,1.366,1.738,2.1c0.168,8.91,0.183,17.824,0.211,26.736c0.002,0.549-0.147,1.544-0.352,1.579
		c-2.477,0.415-5.217,1.456-7.403,0.774c-2.03-0.633-3.686-2.981-5.126-4.864c-2.003-2.616-3.61-5.531-5.471-8.262
		c-0.848-1.244-0.978-2.06,0.436-3.07c2.696-1.929,5.11-4.056,5.349-7.833c0.206-3.266-1.617-8.218-4.17-9.478
		c-3.46-1.708-7.069-2.732-11.065-2.379c-4.94,0.438-9.913,0.533-14.872,0.741c-0.823,0.034-1.704-0.304-2.464-0.106
		c-0.595,0.154-1.418,0.834-1.466,1.344c-0.062,0.654,0.433,1.876,0.891,1.982c3.267,0.758,3.661,3.225,3.677,5.871
		c0.048,7.831-0.025,15.662,0.059,23.492c0.019,1.771-0.57,2.647-2.322,2.801c-0.571,0.05-1.262,0.118-1.655,0.459
		c-0.479,0.415-0.88,1.105-0.95,1.719c-0.028,0.243,0.919,0.855,1.429,0.862c5.581,0.083,11.163,0.117,16.743,0.045
		c0.607-0.008,1.205-0.77,1.807-1.181c-0.458-0.658-0.777-1.638-1.403-1.908c-1.393-0.604-2.939-0.853-4.566-1.285
		c0.393-4.312-0.786-8.7,1.116-12.52c1.404,0.713,2.754,0.993,3.411,1.823c1.131,1.43,1.841,3.196,2.709,4.831
		c1.369,2.576,2.744,5.15,4.075,7.746c0.807,1.573,1.767,2.674,3.797,2.645c5.485-0.079,10.973,0.011,16.459,0.019
		c10.08,0.015,20.159,0.035,30.238-0.004c0.803-0.003,2.213-0.309,2.312-0.721c0.837-3.489,1.435-7.036,2.114-10.611
		c-2.853-0.165-2.809-0.142-3.961,1.98c-1.375,2.53-2.964,5.097-6.127,5.334c-4.127,0.311-8.289,0.23-12.433,0.166
		c-0.578-0.009-1.623-0.868-1.639-1.359c-0.131-4.217-0.075-8.438-0.075-12.847c2.603,0,4.916-0.021,7.229,0.005
		c4.128,0.047,4.151,0.054,5.143,3.983c0.402,1.595,1.066,2.603,2.977,1.775c0-4.915,0-9.858,0-14.861c-1.015,0-1.799,0-2.646,0
		c-0.186,0.863-0.388,1.582-0.489,2.314c-0.326,2.363-1.693,3.47-4.042,3.463c-2.642-0.007-5.284-0.001-8.082-0.001
		C164,310.004,164,305.632,164,300.842z M304.196,325.064c-5.864-5.89-11.479-11.545-17.113-17.181
		c-3.093-3.095-6.201-6.176-9.344-9.22c-0.509-0.492-1.229-1.065-1.864-1.08c-4.14-0.098-8.282-0.05-12.508-0.05
		c0,1.363,0,2.228,0,3.119c0.719,0.169,1.279,0.297,1.838,0.433c4.344,1.058,5.022,1.643,5.101,5.982
		c0.132,7.315,0.073,14.636-0.013,21.952c-0.046,3.913-0.145,3.937-4.045,4.231c-1.298,0.098-2.267,0.624-1.824,1.96
		c0.219,0.661,1.293,1.397,2.03,1.454c1.642,0.128,3.313-0.221,4.975-0.248c3.137-0.053,6.275-0.016,9.359-0.016
		c0.887-3.158-1.301-3.133-3.08-3.084c-2.11,0.058-3.022-0.706-3.026-2.818c-0.004-2.245-0.243-4.488-0.262-6.733
		c-0.042-5.187-0.014-10.374-0.014-15.652c0.496,0.39,1.046,0.744,1.505,1.193c5.41,5.299,10.823,10.596,16.2,15.928
		c3.723,3.693,7.303,7.537,11.155,11.088c0.816,0.752,2.548,0.705,3.83,0.619c0.322-0.021,0.785-1.626,0.765-2.493
		c-0.232-9.816-0.505-19.631-0.875-29.442c-0.069-1.829,0.548-2.845,2.266-3.274c0.643-0.161,1.48-0.147,1.875-0.556
		c0.588-0.608,1.09-1.499,1.169-2.313c0.036-0.372-1.014-1.209-1.587-1.224c-3.827-0.097-7.661-0.082-11.488,0.043
		c-0.584,0.02-1.646,0.851-1.609,1.219c0.08,0.805,0.559,1.761,1.188,2.263c0.579,0.462,1.687,0.222,2.346,0.636
		c0.781,0.489,1.848,1.311,1.899,2.051C303.531,310.796,303.827,317.754,304.196,325.064z M513.235,308.165
		c0.455-0.33,0.91-0.66,1.365-0.99c9.08,9.516,18.203,18.989,27.2,28.581c1.691,1.803,3.238,1.896,4.658,1.208
		c0-10.894,0.103-21.383-0.08-31.867c-0.041-2.334,0.884-3.252,2.801-3.525c2.53-0.36,2.909-1.685,2.045-3.937
		c-4.333,0-8.654-0.05-12.972,0.066c-0.506,0.014-1.3,0.877-1.423,1.46c-0.405,1.905,1.054,2.053,2.426,2.3
		c1.241,0.225,2.86,0.083,2.977,1.977c0.428,7.016,0.821,14.033,1.272,21.824c-1.453-1.53-2.333-2.5-3.258-3.424
		c-7.719-7.707-15.438-15.41-23.183-23.091c-0.503-0.499-1.199-1.121-1.818-1.136c-4.219-0.1-8.44-0.053-12.604-0.053
		c-0.532,2.225-0.221,3.198,1.831,3.597c4.529,0.881,5.211,1.752,5.254,6.366c0.064,6.996,0.011,13.993-0.04,20.989
		c-0.01,1.395,0.244,3.206-0.501,4.057c-0.679,0.774-2.618,0.314-3.867,0.771c-0.682,0.249-1.083,1.268-1.611,1.938
		c0.606,0.472,1.193,1.31,1.823,1.344c1.816,0.101,3.65-0.181,5.479-0.208c3.056-0.047,6.112-0.013,9.183-0.013
		c0.812-3.186-1.451-2.855-3.161-3.088c-1.334-0.181-2.972,0.234-3.037-1.978C513.765,323.61,513.492,315.888,513.235,308.165z
		 M478.179,336.718c2.214-0.282,4.458-0.422,6.638-0.872c10.112-2.09,17.153-13.346,14.725-23.422
		c-2.281-9.465-9.539-15.278-19.61-15.67c-7.382-0.288-13.916,1.814-18.582,7.736c-5.261,6.678-5.486,14.257-1.86,21.614
		C463.19,333.616,469.84,336.777,478.179,336.718z M236.997,317.913c2.628,0,4.873-0.006,7.118,0.001
		c5.085,0.015,4.343-0.093,5.449,4.21c0.517,2.01,1.412,2.052,2.928,1.669c0-5.073,0-10.015,0-14.85
		c-2.61-0.944-3.063,0.609-3.261,2.273c-0.276,2.32-1.566,3.363-3.819,3.368c-2.726,0.007-5.452,0.002-8.293,0.002
		c0-4.564,0-9.003,0-13.718c3.656,0.164,7.153,0.622,10.606,0.397c4.139-0.269,6.397,1.637,7.586,5.263
		c0.647,1.971,1.834,2.259,3.51,1.603c0.054-0.227,0.09-0.308,0.09-0.389c0.001-1.831-0.005-3.662-0.004-5.493
		c0.002-3.873-0.099-4.04-4.101-4.105c-10.485-0.17-20.971-0.295-31.457-0.374c-0.594-0.004-1.431,0.435-1.717,0.923
		c-0.254,0.435-0.12,1.518,0.239,1.789c0.519,0.392,1.393,0.349,2.122,0.423c3.635,0.372,3.756,0.362,3.835,3.883
		c0.189,8.408,0.229,16.819,0.393,25.229c0.028,1.466-0.499,2.172-1.939,2.297c-0.826,0.072-1.638,0.306-2.463,0.367
		c-1.33,0.101-2.77,0.271-2.336,2.018c0.148,0.599,1.516,1.266,2.331,1.271c10.912,0.085,21.825,0.062,32.738,0.052
		c0.894-0.001,1.787-0.116,2.754-0.183c0.7-3.83,1.363-7.465,2.042-11.182c-2.005-0.513-3.144-0.229-3.93,1.712
		c-1.083,2.671-2.789,5.231-5.915,5.505c-4.278,0.374-8.604,0.261-12.907,0.202c-0.54-0.007-1.513-0.938-1.529-1.463
		C236.94,326.472,236.997,322.325,236.997,317.913z M86.385,315.335c-0.245,2.931,0.212,3.393,3.979,4.234
		c6.004,1.341,12.197-2.345,13.563-8.073c1.531-6.421-1.616-12.508-8.138-13.243c-8.215-0.926-16.584-0.502-24.888-0.591
		c-0.355-0.004-1.005,0.687-1.009,1.059c-0.007,0.548,0.31,1.279,0.738,1.604c0.489,0.369,1.246,0.493,1.895,0.522
		c2.355,0.104,3.12,1.482,3.166,3.614c0.154,7.154,0.29,14.311,0.547,21.461c0.124,3.423,0.486,6.777-4.282,7.381
		c-0.41,0.053-0.793,1.397-0.882,2.177c-0.023,0.202,1.115,0.767,1.717,0.764c1.317-0.008,2.631-0.396,3.948-0.409
		c4.079-0.042,8.16,0.093,12.235-0.032c0.666-0.021,1.301-1.006,1.951-1.545c-0.562-0.532-1.041-1.332-1.704-1.539
		c-1.317-0.41-2.735-0.494-4.712-0.808c0-9.746-0.023-19.466,0.058-29.186c0.005-0.599,0.731-1.568,1.3-1.727
		c4.871-1.353,8.756,1.594,8.876,6.602c0.136,5.689-1.505,7.412-7.212,7.588C87.206,315.197,86.884,315.269,86.385,315.335z
		 M371.886,335.85c6.054,0,12.027,0.021,18.001-0.039c0.512-0.005,1.019-0.559,1.528-0.857c-0.413-0.605-0.785-1.7-1.243-1.738
		c-3.4-0.278-4.317-2.78-5.374-5.386c-3.925-9.677-7.963-19.309-11.923-28.971c-0.549-1.338-1.164-2.154-2.856-2.145
		c-1.759,0.01-1.986,1.149-2.426,2.297c-3.974,10.384-7.897,20.787-11.995,31.121c-0.435,1.096-1.797,1.946-2.908,2.609
		c-0.802,0.478-1.902,0.454-2.99,0.68c0,0.772,0,1.485,0,2.417c4.646,0,9.188,0.039,13.727-0.059c0.461-0.01,0.904-0.84,1.355-1.289
		c-0.473-0.445-0.878-1.155-1.428-1.294c-4.248-1.068-4.258-1.035-2.752-5.159c0.171-0.468,0.369-0.926,0.548-1.392
		c1.508-3.937,1.507-3.937,5.774-3.921c6.491,0.022,6.491,0.022,8.938,6.143c1.366,3.417,1.383,3.503-2.17,4.193
		C372.193,333.353,371.337,333.789,371.886,335.85z M345.189,335.986c0.717-3.255-1.844-2.841-3.325-3.261
		c-1.387-0.394-2.435-0.568-2.425-2.43c0.051-8.822-0.056-17.646,0.025-26.468c0.006-0.604,1.031-1.646,1.677-1.726
		c5.552-0.687,6.235-0.268,8.697,4.639c0.074,0.148,0.114,0.354,0.236,0.432c0.638,0.404,1.446,1.212,1.912,1.052
		c0.636-0.218,1.401-1.158,1.44-1.828c0.172-2.903,0.151-5.822,0.072-8.731c-0.016-0.59-0.539-1.613-0.906-1.649
		c-0.674-0.067-1.418,0.424-2.11,0.733c-1.028,0.459-2.032,1.368-3.057,1.383c-8.321,0.112-16.646,0.102-24.969,0.004
		c-0.993-0.012-2.13-0.582-2.935-1.225c-1.538-1.228-2.646-1.065-3.294,0.821c-0.834,2.425-1.684,4.85-2.339,7.324
		c-0.146,0.552,0.323,1.522,0.816,1.9c0.358,0.273,1.276,0.009,1.842-0.245c0.402-0.181,0.631-0.746,0.941-1.135
		c2.938-3.674,8.229-4.851,12.873-2.708c0,8.115,0.051,16.338-0.021,24.559c-0.036,4.153-0.139,4.146-4.087,5.273
		c-0.636,0.182-1.369,0.318-1.833,0.729c-0.479,0.425-0.683,1.158-1.008,1.757c0.536,0.267,1.071,0.76,1.609,0.765
		C331.673,336.005,338.323,335.986,345.189,335.986z M421.241,335.85c0.646-3.13-1.846-2.741-3.337-3.136
		c-1.402-0.37-2.437-0.586-2.426-2.446c0.051-8.822-0.05-17.646,0.015-26.468c0.004-0.595,0.854-1.618,1.425-1.706
		c5.397-0.834,6.59-0.175,8.991,4.587c0.112,0.223,0.185,0.52,0.368,0.643c0.562,0.375,1.278,1.056,1.734,0.924
		c0.609-0.176,1.445-0.985,1.467-1.551c0.134-3.536,0.067-7.08,0.067-11.217c-1.23,0.487-2.056,0.783-2.854,1.139
		c-1.111,0.495-2.195,1.471-3.304,1.488c-8.239,0.133-16.481,0.126-24.721,0.026c-1.057-0.013-2.261-0.615-3.121-1.294
		c-1.414-1.117-2.627-0.994-3.198,0.709c-0.764,2.277-1.325,4.628-2.196,6.86c-0.468,1.198-0.668,2.249,0.67,2.601
		c0.663,0.175,1.823-0.379,2.332-0.97c3.557-4.131,7.804-5.293,13.481-3.217c0,7.552,0.016,15.28-0.005,23.008
		c-0.015,5.324-0.039,5.318-5.074,7.095c-1.31,0.462-2.485,1.043-1.825,2.925C406.917,335.85,414.03,335.85,421.241,335.85z
		 M193.258,325.5c0,2.45-0.112,4.937,0.072,7.4c0.052,0.691,0.848,1.66,1.524,1.915c4.474,1.69,9.039,2.593,13.883,1.625
		c7.964-1.59,12.723-10.442,9.134-17.403c-2.149-4.17-6.192-5.781-10.324-7.255c-2.172-0.775-4.359-1.631-6.337-2.793
		c-1.755-1.032-2.522-2.854-2.047-4.954c0.471-2.081,1.855-3.247,3.928-3.675c3.986-0.824,7.046,0.81,8.517,5.021
		c0.754,2.16,1.771,3.042,3.975,2.331c1.665-6.8-0.17-9.686-6.851-10.686c-1.227-0.184-2.489-0.308-3.722-0.238
		c-3.858,0.217-7.412,1.311-9.914,4.461c-4.435,5.588-2.654,13.818,3.762,16.975c3.486,1.715,7.19,2.981,10.763,4.527
		c2.333,1.009,3.792,2.75,3.573,5.423c-0.2,2.434-2.485,4.548-5.186,5.024c-5.206,0.917-8.413-0.712-10.544-5.662
		C196.599,325.526,195.577,324.511,193.258,325.5z M452.197,297.582c-5.783,0-11.514-0.036-17.241,0.062
		c-0.52,0.009-1.521,1.026-1.435,1.334c0.198,0.708,0.834,1.671,1.46,1.817c3.575,0.838,3.598,0.767,3.729,4.483
		c0.029,0.831,0.021,1.664,0.008,2.495c-0.102,6.487-0.376,12.978-0.255,19.46c0.083,4.465,0.311,4.418-3.826,5.957
		c-0.573,0.213-0.897,1.096-1.337,1.668c0.562,0.332,1.122,0.944,1.688,0.953c5.243,0.073,10.487,0.08,15.729-0.012
		c0.587-0.01,1.161-0.755,1.742-1.159c-0.52-0.607-0.93-1.519-1.584-1.756c-1.104-0.4-2.362-0.374-3.456-0.515
		c0-9.215,0.109-18.116-0.066-27.013c-0.053-2.647,0.423-4.267,3.312-4.613C452.238,300.556,453.024,299.606,452.197,297.582z"/>
	<path fill-rule="evenodd" clip-rule="evenodd" fill="#FFFFFF" d="M468.626,367.109c0.738-0.113,1.302-0.274,1.866-0.275
		c5.832-0.009,11.664,0.041,17.496-0.005c1.495-0.012,2.138,0.503,2.027,2.025c-0.078,1.077,0.006,2.165,0.006,3.248
		c0.001,33.078-0.019,66.156,0.043,99.234c0.005,2.162-0.6,3.68-2.148,5.223c-22.895,22.803-45.71,45.687-68.613,68.481
		c-0.932,0.927-2.537,1.655-3.834,1.663c-18.579,0.114-37.159,0.093-55.74,0.095c-46.242,0.003-92.485-0.025-138.727,0.062
		c-2.989,0.006-5.058-0.867-7.171-2.995c-22.073-22.219-44.234-44.351-66.445-66.434c-2.135-2.122-3.178-4.202-3.166-7.343
		c0.129-32.578,0.079-65.156,0.079-97.734c0-1.65,0-3.301,0-5.545c2.581,0,4.958-0.004,7.334,0
		c3.916,0.007,7.835,0.128,11.746-0.017c2.145-0.079,2.664,0.727,2.655,2.744c-0.067,14.247-0.03,28.495-0.028,42.742
		c0.001,16.331,0.031,32.662-0.046,48.992c-0.009,1.819,0.487,3.097,1.764,4.369c17.222,17.161,34.393,34.374,51.597,51.553
		c2.705,2.701,5.096,6.312,8.386,7.659c3.206,1.313,7.38,0.254,11.128,0.254c55.325-0.002,110.649-0.011,165.973,0.042
		c1.731,0.002,2.905-0.502,4.1-1.7c19.402-19.472,38.854-38.896,58.239-58.385c0.706-0.71,1.209-1.975,1.211-2.982
		c0.054-30.662,0.03-61.323,0.033-91.985C468.391,369.118,468.542,368.141,468.626,367.109z"/>
	<path fill-rule="evenodd" clip-rule="evenodd" fill="#FFFFFF" d="M138.063,110.653c0,17.676,0,35.221,0,53.143
		c9.225,0,18.417,0,27.941,0c0,1.346,0,2.319,0,3.292c-0.002,33.331-0.029,66.661,0.044,99.991c0.005,2.282-0.549,3.014-2.882,2.94
		c-5.327-0.169-10.668-0.178-15.995,0.002c-2.369,0.08-2.918-0.705-2.913-2.962c0.068-26.164,0.04-52.329,0.037-78.493
		c0-0.978,0-1.955,0-3.132c-7.988,0-15.714,0.024-23.439-0.008c-5.404-0.022-4.554,0.523-4.559-4.436
		c-0.029-29.498-0.019-58.995-0.021-88.492c0-1.053,0-2.106,0-3.388c58.681,0,116.979,0,175.502,0c0,32.024,0,63.959,0,96.214
		c-9.179,0-18.368,0-27.814,0c0,1.376,0,2.437,0,3.498c-0.001,26.081-0.029,52.162,0.042,78.243
		c0.006,2.254-0.531,3.036-2.904,2.956c-5.41-0.183-10.832-0.126-16.246-0.023c-1.905,0.036-2.625-0.469-2.622-2.507
		c0.056-33.747,0.057-67.494,0.006-101.241c-0.003-2.013,0.664-2.564,2.604-2.543c8.327,0.087,16.655,0.037,25.213,0.037
		c0-17.749,0-35.342,0-53.089C226.077,110.653,182.126,110.653,138.063,110.653z"/>
	<path fill-rule="evenodd" clip-rule="evenodd" fill="#FFFFFF" d="M370.313,185.42c-9.234,0-18.292,0-27.609,0
		c-0.116-1.632-0.31-3.093-0.311-4.554c-0.019-29.666,0.004-59.331-0.054-88.997c-0.005-2.229,0.533-2.898,2.932-2.897
		c55.578,0.033,111.157-0.042,166.735-0.082c1.902-0.001,3.804,0.157,5.877,0.248c0,32.042,0,64,0,96.252
		c-9.246,0-18.443,0-27.863,0c0,1.27,0,2.249,0,3.228c0.004,26.083-0.032,52.165,0.073,78.247c0.011,2.563-0.659,3.253-3.185,3.161
		c-5.409-0.199-10.831-0.111-16.246-0.029c-1.611,0.024-2.303-0.518-2.258-2.123c0.044-1.582-0.013-3.166-0.013-4.749
		c-0.001-31.416-0.001-62.831-0.001-94.247c0-1.562,0-3.125,0-4.971c9.493,0,18.609,0,27.88,0c0.06-0.994,0.141-1.713,0.141-2.432
		c0.014-16.25-0.008-32.499,0.061-48.748c0.008-1.73-0.416-2.296-2.215-2.294c-42.831,0.043-85.662,0.029-128.494,0.031
		c-0.481,0-0.964,0.069-1.603,0.118c0,17.663,0,35.208,0,53.05c0.842,0.041,1.718,0.119,2.594,0.12
		c7.583,0.009,15.166,0.042,22.749-0.025c1.863-0.017,2.604,0.481,2.601,2.522c-0.064,33.915-0.052,67.83-0.064,101.746
		c0,0.56-0.1,1.119-0.18,1.968c-4.348,0-8.572-0.002-12.796,0.001c-2.083,0.001-4.175-0.099-6.248,0.049
		c-1.933,0.138-2.532-0.741-2.446-2.481c0.045-0.915,0.002-1.833,0.002-2.75c0.008-25.999,0.016-51.998,0.021-77.997
		C370.392,186.455,370.355,186.124,370.313,185.42z"/>
	<path fill-rule="evenodd" clip-rule="evenodd" fill="#FFFFFF" d="M267.725,366.81c2.426,0,4.502-0.001,6.577,0
		c29.739,0.008,59.479,0.032,89.217-0.017c1.873-0.003,2.679,0.365,2.676,2.419c-0.027,19.823,0.054,39.647-0.013,59.471
		c-0.004,1.234-0.704,2.718-1.555,3.654c-3.973,4.376-8.076,8.635-12.227,12.843c-0.668,0.677-1.807,1.256-2.729,1.259
		c-21.659,0.062-43.317,0.054-64.976-0.023c-0.936-0.003-2.073-0.582-2.768-1.253c-3.955-3.813-7.708-7.84-11.729-11.58
		c-2.066-1.921-2.841-3.996-2.827-6.776c0.087-18.076,0.037-36.153,0.058-54.23C267.43,370.764,267.61,368.952,267.725,366.81z"/>
	<path fill-rule="evenodd" clip-rule="evenodd" fill="#FFFFFF" d="M370.629,367.057c7.275,0,14.226,0,21.44,0
		c0,1.58,0,2.901,0,4.224c-0.003,22.825-0.031,45.65,0.031,68.476c0.006,2.159-0.6,3.688-2.165,5.227
		c-8.729,8.58-17.312,17.31-26.029,25.901c-0.836,0.823-2.258,1.487-3.409,1.49c-28.823,0.078-57.646,0.038-86.469,0.099
		c-2.007,0.004-3.364-0.622-4.731-2.046c-8.473-8.824-17.061-17.539-25.521-26.375c-0.811-0.848-1.434-2.274-1.438-3.435
		c-0.079-23.658-0.055-47.316-0.053-70.975c0-1.322-0.288-2.793,1.815-2.782c6.162,0.031,12.324,0.025,18.485,0.059
		c0.391,0.002,0.78,0.21,1.383,0.384c0,1.255,0,2.492,0,3.729c-0.004,19.993,0.019,39.986-0.052,59.979
		c-0.007,1.905,0.544,3.271,1.865,4.61c4.501,4.563,8.86,9.269,13.374,13.818c0.722,0.728,1.964,1.33,2.967,1.332
		c23.075,0.059,46.15,0.005,69.224,0.049c1.902,0.004,3.282-0.488,4.585-1.897c4.236-4.582,8.655-8.996,12.842-13.621
		c0.887-0.981,1.531-2.582,1.537-3.9c0.095-19.492,0.057-38.985,0.072-58.479C370.385,371.025,370.539,369.126,370.629,367.057z"/>
	<path fill-rule="evenodd" clip-rule="evenodd" fill="#FFFFFF" d="M164,300.842c0,4.79,0,9.162,0,13.766
		c2.798,0,5.44-0.006,8.082,0.001c2.348,0.007,3.716-1.1,4.042-3.463c0.101-0.732,0.303-1.451,0.489-2.314c0.847,0,1.631,0,2.646,0
		c0,5.003,0,9.946,0,14.861c-1.91,0.827-2.574-0.181-2.977-1.775c-0.992-3.93-1.015-3.937-5.143-3.983
		c-2.312-0.026-4.626-0.005-7.229-0.005c0,4.408-0.056,8.63,0.075,12.847c0.016,0.491,1.061,1.351,1.639,1.359
		c4.145,0.064,8.306,0.145,12.433-0.166c3.163-0.237,4.752-2.804,6.127-5.334c1.152-2.122,1.108-2.146,3.961-1.98
		c-0.679,3.575-1.277,7.122-2.114,10.611c-0.099,0.412-1.508,0.718-2.312,0.721c-10.079,0.039-20.159,0.019-30.238,0.004
		c-5.487-0.008-10.974-0.098-16.459-0.019c-2.03,0.029-2.991-1.071-3.797-2.645c-1.332-2.596-2.707-5.17-4.075-7.746
		c-0.869-1.635-1.578-3.401-2.709-4.831c-0.657-0.83-2.007-1.11-3.411-1.823c-1.902,3.819-0.723,8.207-1.116,12.52
		c1.627,0.433,3.174,0.682,4.566,1.285c0.626,0.271,0.945,1.25,1.403,1.908c-0.602,0.411-1.2,1.173-1.807,1.181
		c-5.58,0.072-11.163,0.038-16.743-0.045c-0.51-0.007-1.457-0.619-1.429-0.862c0.07-0.613,0.471-1.304,0.95-1.719
		c0.394-0.341,1.084-0.409,1.655-0.459c1.752-0.153,2.341-1.029,2.322-2.801c-0.084-7.83-0.01-15.661-0.059-23.492
		c-0.016-2.646-0.41-5.113-3.677-5.871c-0.458-0.106-0.953-1.328-0.891-1.982c0.048-0.51,0.871-1.189,1.466-1.344
		c0.76-0.197,1.641,0.141,2.464,0.106c4.959-0.208,9.932-0.303,14.872-0.741c3.996-0.354,7.605,0.671,11.065,2.379
		c2.554,1.26,4.376,6.212,4.17,9.478c-0.238,3.777-2.653,5.904-5.349,7.833c-1.414,1.011-1.284,1.826-0.436,3.07
		c1.861,2.73,3.468,5.646,5.471,8.262c1.441,1.883,3.097,4.231,5.126,4.864c2.186,0.682,4.926-0.359,7.403-0.774
		c0.205-0.035,0.354-1.03,0.352-1.579c-0.028-8.912-0.043-17.826-0.211-26.736c-0.014-0.733-0.975-1.703-1.738-2.1
		c-0.826-0.429-1.996-0.151-2.899-0.492c-0.663-0.25-1.493-0.927-1.623-1.544c-0.287-1.371,0.747-1.547,1.892-1.526
		c7.236,0.13,14.474,0.226,21.711,0.322c3.664,0.049,7.329,0.12,10.993,0.097c1.923-0.013,2.705,0.823,2.645,2.726
		c-0.077,2.4-0.019,4.805-0.019,7.207c-1.882,0.817-2.892,0.188-3.441-1.586c-1.233-3.985-3.915-5.514-8.098-5.241
		C170.816,301.478,167.565,301.021,164,300.842z M122.025,314.668c3.787,0.025,7.519,0.405,9.531-3.278
		c1.507-2.76,0.935-5.819-0.888-8.207c-2.178-2.854-5.469-2.439-8.644-2.095C122.025,305.66,122.025,310.031,122.025,314.668z"/>
	<path fill-rule="evenodd" clip-rule="evenodd" fill="#FFFFFF" d="M304.196,325.064c-0.369-7.311-0.665-14.269-1.152-21.214
		c-0.052-0.74-1.118-1.562-1.899-2.051c-0.659-0.414-1.767-0.174-2.346-0.636c-0.63-0.502-1.108-1.458-1.188-2.263
		c-0.037-0.368,1.025-1.199,1.609-1.219c3.827-0.125,7.661-0.14,11.488-0.043c0.573,0.015,1.623,0.852,1.587,1.224
		c-0.079,0.814-0.581,1.705-1.169,2.313c-0.395,0.408-1.232,0.395-1.875,0.556c-1.718,0.43-2.335,1.445-2.266,3.274
		c0.37,9.812,0.643,19.626,0.875,29.442c0.021,0.867-0.442,2.472-0.765,2.493c-1.282,0.086-3.014,0.133-3.83-0.619
		c-3.852-3.551-7.432-7.395-11.155-11.088c-5.376-5.332-10.79-10.629-16.2-15.928c-0.458-0.449-1.009-0.804-1.505-1.193
		c0,5.278-0.029,10.466,0.014,15.652c0.019,2.245,0.258,4.488,0.262,6.733c0.004,2.112,0.916,2.876,3.026,2.818
		c1.779-0.049,3.967-0.074,3.08,3.084c-3.083,0-6.222-0.037-9.359,0.016c-1.661,0.027-3.333,0.376-4.975,0.248
		c-0.737-0.057-1.811-0.793-2.03-1.454c-0.443-1.336,0.526-1.862,1.824-1.96c3.9-0.295,4-0.318,4.045-4.231
		c0.086-7.316,0.145-14.637,0.013-21.952c-0.079-4.34-0.757-4.925-5.101-5.982c-0.559-0.136-1.119-0.264-1.838-0.433
		c0-0.892,0-1.756,0-3.119c4.226,0,8.369-0.048,12.508,0.05c0.635,0.015,1.355,0.588,1.864,1.08c3.143,3.044,6.25,6.125,9.344,9.22
		C292.717,313.52,298.332,319.175,304.196,325.064z"/>
	<path fill-rule="evenodd" clip-rule="evenodd" fill="#FFFFFF" d="M513.235,308.165c0.257,7.723,0.53,15.445,0.759,23.169
		c0.065,2.212,1.703,1.797,3.037,1.978c1.71,0.232,3.973-0.098,3.161,3.088c-3.07,0-6.127-0.034-9.183,0.013
		c-1.828,0.027-3.662,0.309-5.479,0.208c-0.63-0.034-1.217-0.872-1.823-1.344c0.528-0.671,0.93-1.689,1.611-1.938
		c1.249-0.456,3.188,0.004,3.867-0.771c0.745-0.851,0.491-2.662,0.501-4.057c0.051-6.996,0.104-13.993,0.04-20.989
		c-0.043-4.614-0.725-5.485-5.254-6.366c-2.052-0.398-2.363-1.372-1.831-3.597c4.163,0,8.385-0.047,12.604,0.053
		c0.619,0.015,1.315,0.637,1.818,1.136c7.744,7.681,15.464,15.384,23.183,23.091c0.925,0.924,1.805,1.894,3.258,3.424
		c-0.451-7.791-0.845-14.809-1.272-21.824c-0.116-1.894-1.735-1.752-2.977-1.977c-1.372-0.247-2.831-0.395-2.426-2.3
		c0.123-0.583,0.917-1.446,1.423-1.46c4.317-0.116,8.639-0.066,12.972-0.066c0.864,2.252,0.485,3.576-2.045,3.937
		c-1.917,0.273-2.842,1.191-2.801,3.525c0.183,10.484,0.08,20.974,0.08,31.867c-1.42,0.688-2.967,0.595-4.658-1.208
		c-8.997-9.592-18.12-19.065-27.2-28.581C514.145,307.505,513.69,307.835,513.235,308.165z"/>
	<path fill-rule="evenodd" clip-rule="evenodd" fill="#FFFFFF" d="M478.179,336.718c-8.339,0.06-14.989-3.102-18.69-10.613
		c-3.626-7.357-3.4-14.937,1.86-21.614c4.666-5.922,11.2-8.024,18.582-7.736c10.071,0.392,17.329,6.205,19.61,15.67
		c2.429,10.076-4.612,21.332-14.725,23.422C482.637,336.296,480.393,336.436,478.179,336.718z M490.076,316.962
		c-0.485-2.938-0.788-5.92-1.499-8.802c-1.098-4.454-4.859-7.346-8.98-7.812c-6.468-0.731-9.522,2.542-10.784,6.39
		c-2.392,7.298-2.198,14.675,1.301,21.538c3.255,6.386,12.379,6.701,16.74,0.869C489.548,325.541,489.773,321.301,490.076,316.962z"
		/>
	<path fill-rule="evenodd" clip-rule="evenodd" fill="#FFFFFF" d="M236.997,317.913c0,4.412-0.057,8.559,0.071,12.7
		c0.016,0.525,0.989,1.456,1.529,1.463c4.303,0.059,8.629,0.172,12.907-0.202c3.126-0.273,4.832-2.834,5.915-5.505
		c0.787-1.94,1.925-2.225,3.93-1.712c-0.679,3.717-1.343,7.352-2.042,11.182c-0.967,0.066-1.86,0.182-2.754,0.183
		c-10.913,0.011-21.826,0.033-32.738-0.052c-0.815-0.006-2.182-0.673-2.331-1.271c-0.433-1.747,1.007-1.917,2.336-2.018
		c0.826-0.062,1.638-0.295,2.463-0.367c1.44-0.125,1.968-0.831,1.939-2.297c-0.164-8.409-0.204-16.82-0.393-25.229
		c-0.079-3.521-0.2-3.511-3.835-3.883c-0.729-0.074-1.603-0.031-2.122-0.423c-0.359-0.271-0.493-1.354-0.239-1.789
		c0.286-0.488,1.123-0.927,1.717-0.923c10.486,0.079,20.972,0.204,31.457,0.374c4.002,0.065,4.103,0.232,4.101,4.105
		c-0.001,1.831,0.005,3.662,0.004,5.493c0,0.081-0.036,0.162-0.09,0.389c-1.676,0.656-2.863,0.368-3.51-1.603
		c-1.189-3.626-3.448-5.531-7.586-5.263c-3.453,0.225-6.95-0.233-10.606-0.397c0,4.715,0,9.153,0,13.718
		c2.841,0,5.567,0.005,8.293-0.002c2.253-0.005,3.543-1.048,3.819-3.368c0.198-1.664,0.651-3.218,3.261-2.273
		c0,4.835,0,9.776,0,14.85c-1.516,0.383-2.411,0.341-2.928-1.669c-1.106-4.303-0.364-4.195-5.449-4.21
		C241.87,317.907,239.625,317.913,236.997,317.913z"/>
	<path fill-rule="evenodd" clip-rule="evenodd" fill="#FFFFFF" d="M86.385,315.335c0.499-0.066,0.821-0.138,1.145-0.147
		c5.708-0.176,7.348-1.898,7.212-7.588c-0.12-5.008-4.005-7.954-8.876-6.602c-0.568,0.158-1.295,1.128-1.3,1.727
		c-0.081,9.72-0.058,19.439-0.058,29.186c1.977,0.313,3.396,0.397,4.712,0.808c0.664,0.207,1.142,1.007,1.704,1.539
		c-0.65,0.539-1.286,1.524-1.951,1.545c-4.075,0.125-8.156-0.01-12.235,0.032c-1.317,0.013-2.631,0.401-3.948,0.409
		c-0.603,0.003-1.741-0.562-1.717-0.764c0.089-0.779,0.472-2.124,0.882-2.177c4.768-0.604,4.405-3.958,4.282-7.381
		c-0.257-7.15-0.393-14.307-0.547-21.461c-0.046-2.132-0.811-3.51-3.166-3.614c-0.649-0.029-1.406-0.153-1.895-0.522
		c-0.428-0.324-0.745-1.056-0.738-1.604c0.004-0.372,0.654-1.062,1.009-1.059c8.304,0.089,16.673-0.335,24.888,0.591
		c6.521,0.735,9.669,6.822,8.138,13.243c-1.366,5.729-7.559,9.414-13.563,8.073C86.597,318.728,86.14,318.266,86.385,315.335z"/>
	<path fill-rule="evenodd" clip-rule="evenodd" fill="#FFFFFF" d="M371.886,335.85c-0.549-2.061,0.307-2.497,1.806-2.789
		c3.553-0.69,3.536-0.776,2.17-4.193c-2.446-6.12-2.446-6.12-8.938-6.143c-4.268-0.016-4.267-0.016-5.774,3.921
		c-0.179,0.466-0.377,0.924-0.548,1.392c-1.506,4.124-1.496,4.091,2.752,5.159c0.55,0.139,0.955,0.849,1.428,1.294
		c-0.451,0.449-0.895,1.279-1.355,1.289c-4.539,0.098-9.081,0.059-13.727,0.059c0-0.932,0-1.645,0-2.417
		c1.088-0.226,2.188-0.202,2.99-0.68c1.111-0.663,2.474-1.514,2.908-2.609c4.098-10.334,8.021-20.737,11.995-31.121
		c0.439-1.147,0.667-2.287,2.426-2.297c1.692-0.01,2.308,0.807,2.856,2.145c3.96,9.662,7.998,19.294,11.923,28.971
		c1.057,2.605,1.974,5.107,5.374,5.386c0.458,0.038,0.83,1.133,1.243,1.738c-0.51,0.299-1.017,0.853-1.528,0.857
		C383.914,335.871,377.94,335.85,371.886,335.85z M372.018,319.148c-1.355-3.342-2.652-6.542-4.143-10.216
		c-1.415,3.788-2.595,6.942-3.817,10.216C366.769,319.148,369.252,319.148,372.018,319.148z"/>
	<path fill-rule="evenodd" clip-rule="evenodd" fill="#FFFFFF" d="M345.189,335.986c-6.866,0-13.516,0.019-20.166-0.034
		c-0.538-0.005-1.073-0.498-1.609-0.765c0.325-0.599,0.529-1.332,1.008-1.757c0.464-0.411,1.197-0.548,1.833-0.729
		c3.948-1.128,4.051-1.12,4.087-5.273c0.072-8.221,0.021-16.443,0.021-24.559c-4.644-2.143-9.935-0.966-12.873,2.708
		c-0.311,0.389-0.539,0.954-0.941,1.135c-0.565,0.254-1.483,0.519-1.842,0.245c-0.493-0.378-0.963-1.349-0.816-1.9
		c0.655-2.475,1.505-4.899,2.339-7.324c0.648-1.887,1.756-2.049,3.294-0.821c0.805,0.643,1.941,1.213,2.935,1.225
		c8.322,0.098,16.647,0.108,24.969-0.004c1.024-0.015,2.028-0.924,3.057-1.383c0.692-0.31,1.437-0.801,2.11-0.733
		c0.367,0.036,0.891,1.06,0.906,1.649c0.079,2.909,0.1,5.828-0.072,8.731c-0.039,0.67-0.805,1.61-1.44,1.828
		c-0.466,0.16-1.274-0.647-1.912-1.052c-0.122-0.077-0.162-0.283-0.236-0.432c-2.462-4.906-3.146-5.325-8.697-4.639
		c-0.646,0.08-1.671,1.122-1.677,1.726c-0.081,8.821,0.025,17.646-0.025,26.468c-0.01,1.861,1.038,2.036,2.425,2.43
		C343.345,333.146,345.906,332.731,345.189,335.986z"/>
	<path fill-rule="evenodd" clip-rule="evenodd" fill="#FFFFFF" d="M421.241,335.85c-7.211,0-14.324,0-21.511,0
		c-0.66-1.882,0.516-2.463,1.825-2.925c5.035-1.776,5.06-1.771,5.074-7.095c0.021-7.728,0.005-15.456,0.005-23.008
		c-5.678-2.076-9.925-0.914-13.481,3.217c-0.509,0.591-1.669,1.145-2.332,0.97c-1.338-0.352-1.138-1.402-0.67-2.601
		c0.871-2.232,1.433-4.583,2.196-6.86c0.571-1.703,1.784-1.826,3.198-0.709c0.86,0.679,2.064,1.281,3.121,1.294
		c8.239,0.1,16.481,0.106,24.721-0.026c1.108-0.018,2.192-0.993,3.304-1.488c0.799-0.355,1.624-0.651,2.854-1.139
		c0,4.137,0.066,7.681-0.067,11.217c-0.021,0.565-0.857,1.375-1.467,1.551c-0.456,0.132-1.172-0.549-1.734-0.924
		c-0.184-0.123-0.256-0.42-0.368-0.643c-2.401-4.762-3.594-5.421-8.991-4.587c-0.57,0.088-1.421,1.111-1.425,1.706
		c-0.064,8.822,0.036,17.646-0.015,26.468c-0.011,1.86,1.023,2.076,2.426,2.446C419.395,333.108,421.887,332.72,421.241,335.85z"/>
	<path fill-rule="evenodd" clip-rule="evenodd" fill="#FFFFFF" d="M193.258,325.5c2.318-0.989,3.341,0.026,4.207,2.036
		c2.131,4.95,5.338,6.579,10.544,5.662c2.701-0.477,4.986-2.591,5.186-5.024c0.219-2.673-1.241-4.414-3.573-5.423
		c-3.573-1.546-7.277-2.812-10.763-4.527c-6.416-3.156-8.197-11.387-3.762-16.975c2.501-3.15,6.056-4.244,9.914-4.461
		c1.233-0.069,2.495,0.055,3.722,0.238c6.68,1,8.515,3.886,6.851,10.686c-2.204,0.711-3.221-0.171-3.975-2.331
		c-1.471-4.211-4.531-5.845-8.517-5.021c-2.072,0.428-3.457,1.594-3.928,3.675c-0.475,2.101,0.292,3.922,2.047,4.954
		c1.979,1.162,4.165,2.018,6.337,2.793c4.131,1.474,8.174,3.085,10.324,7.255c3.589,6.961-1.17,15.813-9.134,17.403
		c-4.844,0.968-9.409,0.065-13.883-1.625c-0.676-0.255-1.473-1.224-1.524-1.915C193.146,330.437,193.258,327.95,193.258,325.5z"/>
	<path fill-rule="evenodd" clip-rule="evenodd" fill="#FFFFFF" d="M452.197,297.582c0.827,2.024,0.041,2.974-1.53,3.163
		c-2.89,0.347-3.365,1.966-3.312,4.613c0.176,8.896,0.066,17.798,0.066,27.013c1.094,0.141,2.353,0.114,3.456,0.515
		c0.654,0.237,1.064,1.148,1.584,1.756c-0.581,0.404-1.155,1.149-1.742,1.159c-5.242,0.092-10.486,0.085-15.729,0.012
		c-0.566-0.009-1.126-0.621-1.688-0.953c0.439-0.572,0.764-1.455,1.337-1.668c4.137-1.539,3.909-1.492,3.826-5.957
		c-0.121-6.482,0.153-12.973,0.255-19.46c0.013-0.831,0.021-1.664-0.008-2.495c-0.132-3.717-0.154-3.646-3.729-4.483
		c-0.626-0.146-1.262-1.109-1.46-1.817c-0.086-0.308,0.915-1.325,1.435-1.334C440.683,297.546,446.414,297.582,452.197,297.582z"/>
	<path fill-rule="evenodd" clip-rule="evenodd" fill="#105FAA" d="M122.025,314.668c0-4.637,0-9.008,0-13.58
		c3.175-0.345,6.466-0.759,8.644,2.095c1.822,2.388,2.395,5.447,0.888,8.207C129.544,315.073,125.812,314.693,122.025,314.668z"/>
	<path fill-rule="evenodd" clip-rule="evenodd" fill="#105FAA" d="M490.076,316.962c-0.303,4.339-0.527,8.579-3.223,12.184
		c-4.361,5.832-13.485,5.517-16.74-0.869c-3.499-6.863-3.692-14.24-1.301-21.538c1.262-3.848,4.316-7.121,10.784-6.39
		c4.121,0.466,7.883,3.357,8.98,7.812C489.288,311.042,489.59,314.024,490.076,316.962z"/>
	<path fill-rule="evenodd" clip-rule="evenodd" fill="#105FAA" d="M372.018,319.148c-2.766,0-5.249,0-7.96,0
		c1.223-3.273,2.402-6.428,3.817-10.216C369.366,312.606,370.663,315.807,372.018,319.148z"/>
</g>
</svg>
