<?xml version="1.0" encoding="utf-8"?>
<!-- Generator: Adobe Illustrator 16.0.0, SVG Export Plug-In . SVG Version: 6.00 Build 0)  -->
<!DOCTYPE svg PUBLIC "-//W3C//DTD SVG 1.1//EN" "http://www.w3.org/Graphics/SVG/1.1/DTD/svg11.dtd">
<svg version="1.1" xmlns="http://www.w3.org/2000/svg" xmlns:xlink="http://www.w3.org/1999/xlink" x="0px" y="0px"
	 width="512.219px" height="512.171px" viewBox="0 0 512.219 512.171" enable-background="new 0 0 512.219 512.171"
	 xml:space="preserve">
<g id="Layer_1">
	<g>
		<path fill="#466079" d="M0,0h512.219v512.171H0 M322.085,254.61c-0.012,0-0.024,0-0.037,0c0,13.654,0.088,27.31-0.061,40.961
			c-0.038,3.531,0.819,5.021,4.718,4.931c11.316-0.265,22.667,0.324,33.961-0.263c16.114-0.831,26.811-7.926,32.474-23.426
			c4.404-12.052,4.656-24.628,1.85-36.84c-3.66-15.925-10.86-26.91-29.944-29.445c-12.746-1.692-25.604-0.242-38.396-0.769
			c-3.856-0.159-4.698,1.28-4.644,4.892C322.209,227.968,322.085,241.29,322.085,254.61z M113.003,303.228
			c7.987-0.061,14.503-1.148,20.61-4.066c9.622-4.596,13.67-12.527,13.749-22.926c0.076-10.133-4.768-17.008-13.68-21.264
			c-4.208-2.01-8.773-2.96-13.263-4.124c-6.099-1.58-12.398-2.481-18.231-4.969c-10.664-4.549-13.612-15.729-5.847-23.897
			c7.044-7.41,16.291-7.71,25.561-5.424c7.834,1.932,12.876,7.154,13.697,15.31c0.535,5.307,4.112,3.135,6.583,3.344
			c3.485,0.295,2.38-2.54,2.194-4.253c-0.79-7.28-3.816-13.563-9.995-17.629c-12.177-8.013-25.125-7.95-38.003-2.003
			c-8.773,4.052-13.281,11.623-13.321,21.157c-0.041,9.659,4.872,16.702,13.716,20.747c4.234,1.937,8.753,3.069,13.271,4.188
			c6.574,1.625,13.342,2.599,19.44,5.854c10.943,5.843,11.536,21.256,1.014,27.877c-7.409,4.662-15.409,4.49-23.592,2.781
			c-9.181-1.918-14.882-7.726-16.238-16.688c-0.878-5.809-4.433-4.508-7.497-4.129c-4.108,0.508-1.967,3.885-1.766,5.957
			c0.32,3.285,1.314,6.428,3.049,9.391C91.192,299.964,102.205,302.593,113.003,303.228z M302.482,242.75c-0.014,0-0.025,0-0.039,0
			c0-9.826-0.076-19.653,0.055-29.478c0.033-2.474-0.439-3.324-3.193-3.544c-4.634-0.371-6.384,0.792-6.32,5.841
			c0.231,18.482,0.039,36.97-0.094,55.455c-0.037,5.218-1.252,10.201-4.218,14.603c-5.423,8.051-17.241,11.283-29.224,8.682
			c-9.652-2.096-15.016-7.994-16.912-17.303c-0.858-4.213-1.306-8.508-1.272-12.873c0.128-16.652-0.032-33.308,0.133-49.96
			c0.034-3.43-0.821-4.712-4.417-4.45c-3.024,0.221-5.265-0.106-5.199,4.315c0.269,17.983-0.167,35.979,0.219,53.957
			c0.398,18.524,8.332,33.104,30.458,34.924c23.7,1.951,39.504-8.73,39.997-34.188C302.624,260.074,302.482,251.411,302.482,242.75z
			 M440.704,252.936c-7.807-12.784-15.253-24.786-22.496-36.909c-4.257-7.125-4.886-7.528-13.731-5.354
			c0.994,1.793,1.869,3.554,2.908,5.213c8.476,13.525,16.899,27.083,25.536,40.506c2.062,3.205,3.174,6.322,3.089,10.189
			c-0.214,9.819,0.142,19.653-0.134,29.471c-0.114,4.098,1.65,4.457,5.04,4.492c3.312,0.033,4.641-0.519,4.55-4.236
			c-0.257-10.484-0.067-20.98-0.082-31.471c-0.003-2.176,0.174-4.158,1.483-6.133c6.158-9.28,12.158-18.667,18.188-28.033
			c4.278-6.644,8.516-13.314,12.888-20.156c-9.62-1.775-9.86-1.58-14.445,5.866C456.102,228.391,448.579,240.322,440.704,252.936z
			 M192.165,259.591c0-12.327,0.109-24.656-0.069-36.982c-0.051-3.511,1.095-4.65,4.568-4.535
			c6.823,0.227,13.661-0.032,20.488,0.127c3.856,0.09,3.052-2.458,3.174-4.717c0.12-2.226,0.051-3.753-2.986-3.735
			c-19.991,0.121-39.982,0.137-59.973,0.029c-3.13-0.017-3.465,1.4-3.454,3.943c0.012,2.631,0.104,4.522,3.611,4.414
			c6.158-0.191,12.326-0.002,18.49-0.002c6.81,0,6.786-0.015,6.785,6.577c-0.006,23.823,0.09,47.646-0.08,71.468
			c-0.025,3.581,0.999,4.471,4.434,4.411c3.354-0.057,5.192-0.381,5.106-4.514C192.005,283.919,192.168,271.753,192.165,259.591z
			 M48.484,236.34c0,0.011,0,0.021,0,0.032c4.993,0,9.985-0.014,14.978,0.007c1.938,0.008,3.734-0.014,3.714-2.728
			c-0.048-6.49-0.024-12.981-0.048-19.471c-0.004-1.296-0.429-2.281-1.984-2.262c-1.469,0.018-2.078,0.843-2.081,2.209
			c-0.007,3.162,0.085,6.327,0,9.486c-0.256,9.447,2.192,8.528-9.378,8.621c-2.531,0.021-3.621-0.879-3.545-3.486
			c0.116-3.991,0.023-7.988-0.021-11.981c-0.016-1.373-0.144-2.803-2.055-2.733c-1.8,0.066-2.042,1.398-2.052,2.812
			c-0.019,2.663-0.007,5.326-0.012,7.988c-0.014,7.633-0.015,7.461-7.602,7.473c-3.365,0.005-4.341-1.202-4.173-4.382
			c0.219-4.149,0.094-8.319,0.035-12.479c-0.02-1.385,0.511-3.314-1.747-3.452c-2.176-0.132-2.202,1.719-2.217,3.168
			c-0.064,5.99,0.031,11.982-0.034,17.972c-0.029,2.696,1.31,3.319,3.746,3.248C38.83,236.24,43.658,236.34,48.484,236.34z
			 M49.167,243.85c-3.992,0-8.007-0.256-11.968,0.098c-2.301,0.205-6.494-1.878-6.585,1.72c-0.108,4.244,4.343,2.255,6.735,2.333
			c8.552,0.278,8.557,0.124,8.555,8.875c-0.003,10.937-0.003,10.937-11.179,11.109c-0.333,0.006-0.666,0.006-0.998-0.002
			c-1.539-0.035-3.21-0.104-3.352,1.992c-0.173,2.559,1.816,2.355,3.458,2.361c9.815,0.031,19.63,0.053,29.445,0.008
			c1.514-0.006,3.666,0.619,3.77-1.977c0.101-2.521-1.98-2.058-3.551-2.375c-4.656-0.941-11.152,2.69-13.659-1.818
			c-2.121-3.816-0.319-9.743-0.51-14.725c-0.104-2.704,1-3.477,3.483-3.402c3.823,0.115,7.651,0.036,11.478,0.029
			c1.694-0.003,3.044-0.546,2.893-2.533c-0.147-1.936-1.76-1.668-3.043-1.676C59.149,243.837,54.158,243.855,49.167,243.85z
			 M50.546,291.942c0-0.017,0-0.03,0-0.047c4.319,0,8.638,0.01,12.957-0.006c1.661-0.009,3.632,0.187,3.541-2.296
			c-0.084-2.286-2.049-1.77-3.417-1.78c-6.811-0.06-13.622-0.026-20.434-0.033c-8.275-0.01-8.276-0.012-8.906-8.25
			c-0.025-0.329-0.017-0.663-0.031-0.995c-0.047-1.086-0.405-1.98-1.625-2.123c-1.462-0.17-2.242,0.696-2.253,2.02
			c-0.065,7.473-0.078,14.943-0.039,22.416c0.006,1.25,0.606,2.234,2.122,2.227c1.645-0.008,1.8-1.107,1.802-2.355
			c0.003-1.661,0.166-3.338-0.002-4.979c-0.303-2.959,0.546-4.174,3.836-3.883C42.217,292.218,46.394,291.942,50.546,291.942z
			 M74.779,258.087c0,15.164-0.024,30.33,0.038,45.494c0.006,1.504-0.878,4.108,1.1,4.252c2.445,0.176,1.419-2.504,1.422-3.896
			c0.065-30.828,0.056-61.655-0.009-92.483c-0.002-1.268,0.881-3.631-1.307-3.556c-1.96,0.067-1.196,2.373-1.201,3.697
			C74.763,227.093,74.783,242.591,74.779,258.087z"/>
		<path fill="#466079" d="M331.322,256.008c-0.006-11.145,0.122-22.292-0.082-33.434c-0.063-3.486,0.968-4.638,4.479-4.523
			c8.311,0.271,16.642-0.053,24.943,0.308c10.253,0.445,18.245,4.99,22.359,14.702c6.119,14.446,5.934,29.162,0.138,43.608
			c-5.204,12.97-16.751,15.494-28.987,16.109c-6.306,0.318-12.644-0.057-18.959,0.131c-3.024,0.09-4.002-0.879-3.952-3.967
			C331.436,277.968,331.329,266.987,331.322,256.008z"/>
	</g>
</g>
<g id="Layer_2">
</g>
</svg>
